PathFileType	4	(X/Y/Z)	/home/abdul/Desktop/myosuite/custom_workspace/IK/output/S3_12_3.trc
DataRate	CameraRate	NumFrames	NumMarkers	Units	OrigDataRate	OrigDataStartFrame	OrigNumFrames
200.0	200.0	50	3	mm	200.0	974	1113
Frame#	Time	V_Shoulder			V_Elbow			V_Wrist		
		X1	Y1	Z1	X2	Y2	Z2	X3	Y3	Z3

974	4.865	-126.9680078429323	656.9235875277268	316.0937700983109	-325.1904101382853	469.85862824167583	70.2464666007078	-151.37609177230408	215.3591322098283	68.21979216676466
975	4.87	-126.94463292057958	657.0847983957516	316.12353407809206	-325.50214591871656	470.0973709390723	70.43971114193086	-152.76752127398817	215.27666353993246	68.84710051804001
976	4.875	-126.92155185745249	657.2471281006912	316.1536787397663	-325.8148767392951	470.3371423574381	70.6349845215159	-154.18263928308875	215.18368622765308	69.47215940894206
977	4.88	-126.89880144948386	657.4104279977505	316.18416254576044	-326.1284030549814	470.5778029604014	70.83210396792299	-155.62077935270372	215.08033764007672	70.09403651357007
978	4.885	-126.87641972076415	657.5745481596539	316.2149418002987	-326.44252673702124	470.81921669458103	71.03087918761098	-157.08124228206714	214.96678837034085	70.71178343186965
979	4.89	-126.85444586389288	657.7393376567106	316.2459706781326	-326.75705136238065	471.0612513765354	71.23111251380826	-158.5632971811482	214.84324200301302	71.32443729008345
980	4.895	-126.83292017674482	657.9046448409582	316.27720125987105	-327.0717824943136	471.3037790611884	71.43259908204905	-160.06618259656705	214.7099347655709	71.93102245385228
981	4.9	-126.81188399579871	658.0703176335154	316.3085835740185	-327.3865279532881	471.5466763895639	71.63512703286523	-161.5891076950386	214.56713506549903	72.53055235072478
982	4.905	-126.7913796261774	658.2362038142604	316.3400656458125	-327.7010980775524	471.78982491376496	71.83847774192219	-163.13125350048318	214.4151429130109	73.12203139811693
983	4.91	-126.7714502685485	658.4021513129284	316.3715935529336	-328.0153059726837	472.03311139725065	72.04242607778126	-164.6917741808903	214.25428922990397	73.70445703205522
984	4.915	-126.7521399430348	658.5680085007131	316.40311148814203	-328.32896774952604	472.2764280885943	72.2467406873618	-166.26979838099115	214.0849350455557	74.27682183134533
985	4.92	-126.73349341028229	658.733624481449	316.4345618288782	-328.64190274998236	472.51967296704714	72.4511843090634	-167.86443059678152	213.90747058157388	74.83811573113728
986	4.925	-126.71555608983222	658.8988493814423	316.46588521384257	-328.95393376019547	472.7627499583872	72.65551411339224	-169.47475258794202	213.72231422711536	75.38732831921206
987	4.93	-126.69837397594215	659.0635346370286	316.4970206265519	-329.2648872107143	473.00556911969477	72.85948207081806	-171.09982482422575	213.52991140738533	75.92345120769909
988	4.935	-126.68199355099823	659.2275332789277	316.52790548584625	-329.57459336331056	473.2480467918711	73.06283534646789	-172.73868796192062	213.33073334832164	76.44548047235412
989	4.94	-126.66646169665853	659.3907002124903	316.5584757433002	-329.8828864841744	473.49010571889886	73.26531672114123	-174.39036434654778	213.12527574095117	76.95241915098485
990	4.945	-126.65182560286486	659.5528924929322	316.5886659874705	-330.1896050032839	473.73167513302974	73.46666503800893	-176.05385953802383	212.91405730937717	77.44327979211361
991	4.95	-126.63813267485689	659.7139695946788	316.6184095548875	-330.4945916598109	473.97269080528304	73.66661567423627	-177.7281638545935	212.69761828681453	77.91708704451511
992	4.955	-126.6254304383206	659.8737936739609	316.64763864767747	-330.7976936334851	474.2130950608357	73.86490103664727	-179.41225393193048	212.47651880453304	78.37288027786457
993	4.96	-126.61376644279949	660.0322298238316	316.67628445767735	-331.09876266190804	474.4528367590915	74.06125108042738	-181.10509429390206	212.25133719899247	78.80971622438308
994	4.965	-126.60318816349483	660.1891463208044	316.70427729687873	-331.39765514386386	474.69187123841914	74.25539384974131	-182.80563893160297	212.02266824285715	79.22667163107295
995	4.97	-126.59374290157844	660.3444148623472	316.73154673401837	-331.6942322287406	474.93016022575944	74.44705603902526	-184.51283288737653	211.79112130595996	79.6228459118983
996	4.975	-126.5854776831403	660.4979107945029	316.75802173710167	-331.98835989222727	475.16767171150775	74.63596357359839	-186.22561384066273	211.55731845264282	79.99736378908862
997	4.98	-126.57843915689027	660.6495133289544	316.7836308216271	-332.27990899851574	475.40437979028025	74.82184220812651	-187.94291369263806	211.32189248223142	80.34937791262372
998	4.985	-126.57267349073396	660.7991057488892	316.80830220425116	-332.56875534928434	475.6402644683802	75.00441814136407	-189.6636601467371	211.085484919705	80.67807144690127
999	4.99	-126.56822626734034	660.9465756030744	316.8319639616093	-332.8547797197949	475.8753114389759	75.18341864549708	-191.3867782822781	210.84874396389534	80.98266061359061
1000	4.995	-126.56514237882011	661.0918148875936	316.8545441939864	-333.1378678824828	476.10951182619317	75.35857270831218	-193.11119211854336	210.61232240078968	81.26239717973966
1001	5.0	-126.56346592063414	661.2347202147616	316.87597119350283	-333.4179106184657	476.342861899516	75.52961168632461	-194.83582616679632	210.37687548972357	81.5165708803258
1002	5.005	-126.56324008485244	661.3751929687752	316.89617361645907	-333.69480371743936	476.5753627600652	75.69626996691221	-196.55960696784632	210.14305883042186	81.74451176462358
1003	5.01	-126.5645070528874	661.5131394477247	316.9150806594608	-333.96844796646826	476.8070200004952	75.85828563742315	-198.2814646128985	209.91152621898794	81.94559245600297
1004	5.015	-126.5673078878272	661.6484709916434	316.9326222389165	-334.2387491282158	477.0378433404099	76.01540115915317	-200.00033424555156	209.68292750104445	82.11923031506763
1005	5.02	-126.57168242649976	661.7811040963306	316.94872917348556	-334.5056179091913	477.26784623934805	76.16736404402354	-201.71515754292645	209.4579064302958	82.26488949639347
1006	5.025	-126.57766917140322	661.9109605127494	316.96333336902507	-334.76896991862	477.49704548952593	76.3139275317347	-203.42488417402598	209.23709854081358	82.38208288952944
1007	5.03	-126.58530518264286	662.0379673318517	316.9763680055673	-335.02872561856736	477.7254607906507	76.45485126512241	-205.1284732335374	209.02112904133736	82.47037393537283
1008	5.035	-126.59462597002329	662.1620570547515	316.98776772583665	-335.2848102659726	477.95311430922914	76.58990196140445	-206.8248946493972	208.8106107398393	82.52937830952843
1009	5.04	-126.6056653854505	662.2831676482205	316.99746882479593	-335.5371538472599	478.1800302248945	76.71885407697536	-208.51313056253855	208.60614200651767	82.5587654647991
1010	5.045	-126.61845551580745	662.4012425855467	317.0054094396939	-335.7856910062162	478.4062342663577	76.84149046338614	-210.19217667733645	208.40830478326427	82.55826002553428
1011	5.05	-126.63302657647644	662.5162308728454	317.0115297400678	-336.0303609658276	478.63175323965766	76.9576030121348	-211.86104358135597	208.21766264749454	82.52764302717603
1012	5.055	-126.64940680569067	662.6280870609799	317.01577211713806	-336.2711074447768	478.8566145514358	77.06699328589181	-213.51875803309076	208.03475893803648	82.46675299498762
1013	5.06	-126.6676223599092	662.7367712432957	317.01808137201937	-336.5078785693038	479.08084573000144	77.16947313379302	-215.16436421645483	207.86011495054535	82.37548685662271
1014	5.065	-126.68769721042004	662.842249039432	317.01840490215676	-336.74062678113023	479.30447394697137	77.26486528845072	-216.79692496086	207.69422820965104	82.25380068389002
1015	5.07	-126.70965304138899	662.9444915655212	317.016692885385	-336.96930874214155	479.5275255422732	77.35300394236228	-218.41552292577308	207.5375708247477	82.10171025978386
1016	5.075	-126.73350914958348	663.0434753911399	317.01289846099843	-337.1938852365118	479.7500255552932	77.43373530143288	-220.0192617487027	207.39058793601026	81.91929146758353
1017	5.08	-126.7592823460148	663.1391824834207	317.00697790721	-337.4143210709399	479.97199726491647	77.5069181133777	-221.60726715561364	207.25369625686568	81.70668049956652
1018	5.085	-126.78698685975458	663.2316001387749	316.99889081437254	-337.63058497365057	480.19346174117106	77.57242416882593	-223.17868803280868	207.1272827187609	81.46407388363113
1019	5.09	-126.81663424419571	663.3207209027213	316.9886002533272	-337.84264949279043	480.414437411123	77.630138773016	-224.73269745935224	207.01170322365942	81.1917283268771
1020	5.095	-126.84823328604132	663.4065424783493	316.97607293824586	-338.0504908948245	480.63493964159744	77.6799611860484	-226.2684936991401	206.9072815092623	80.88996037594433
1021	5.1	-126.88178991731911	663.4890676239818	316.9612793833275	-338.2540890635112	480.85498034121355	77.72180502974727	-227.78530115174112	206.81430813148972	80.55914589465738
1022	5.105	-126.91730713073223	663.5683040406312	316.94419405271515	-338.45342740000115	481.0745675841142	77.75559865927663	-229.28237126115374	206.73303956828215	80.19971936026147
1023	5.11	-126.9547848986707	663.6442642498679	316.9247955029984	-338.6484927245718	481.2937052576575	77.78128549775904	-230.758983381633	206.66369744828143	79.81217298026144
